<svg width="208" height="62" viewBox="0 0 208 62" fill="none" xmlns="http://www.w3.org/2000/svg">
<path d="M54.12 16.07C54.12 16.07 54.06 16.06 54.03 16.05H54.11C54.11 16.05 54.11 16.06 54.11 16.07H54.12Z" stroke="white" stroke-width="2.65" stroke-linecap="round" stroke-linejoin="round"/>
<path d="M54.11 16.05H40.23C40.09 15.5 39.93 14.96 39.76 14.43C37.98 9.00999 34.56 4.57 30.22 2.01C40.35 2.06 49.2 7.67 54.11 16.05Z" stroke="white" stroke-width="2.65" stroke-linecap="round" stroke-linejoin="round"/>
<path d="M29.95 2C25.6 4.57 22.17 9.03 20.4 14.47C20.24 14.99 20.08 15.51 19.94 16.04H6.06C10.96 7.65999 19.82 2.05 29.95 2Z" stroke="white" stroke-width="2.65" stroke-linecap="round" stroke-linejoin="round"/>
<path d="M6.17001 16.05C6.17001 16.05 6.09001 16.07 6.04001 16.07C6.04001 16.07 6.04002 16.05 6.05002 16.05H6.16H6.17001Z" stroke="white" stroke-width="2.65" stroke-linecap="round" stroke-linejoin="round"/>
<path d="M30.12 44.04C30.12 44.04 30.1 44.03 30.09 44.02C30.09 44.02 30.11 44.02 30.11 44.01C30.11 44.01 30.11 44.03 30.12 44.04Z" stroke="white" stroke-width="2.65" stroke-linecap="round" stroke-linejoin="round"/>
<path d="M16.33 45.48H16.24C16.24 45.48 16.24 45.46 16.23 45.45C16.27 45.46 16.3 45.47 16.34 45.48H16.33Z" stroke="white" stroke-width="2.65" stroke-linecap="round" stroke-linejoin="round"/>
<path d="M44.09 45.4C44.09 45.4 44.07 45.46 44.06 45.48H43.84C43.92 45.45 44.01 45.42 44.09 45.4Z" stroke="white" stroke-width="2.65" stroke-linecap="round" stroke-linejoin="round"/>
<path d="M30.11 44.01C30.11 44.01 30.1 44.01 30.09 44.02C30.09 44.01 30.09 43.99 30.1 43.98C30.1 43.98 30.1 44 30.1 44.01H30.11Z" stroke="white" stroke-width="2.65" stroke-linecap="round" stroke-linejoin="round"/>
<path d="M19.94 16.05C19.79 16.62 19.66 17.2 19.56 17.79C19.27 19.29 19.11 20.84 19.08 22.43C17.41 24.96 16.17 27.92 15.49 31.14H2.02002C2.02002 29.64 2.13 28.16 2.34 26.72C2.9 22.87 4.19 19.27 6.06 16.07C6.1 16.07 6.14 16.05 6.19 16.05H19.96H19.94Z" stroke="white" stroke-width="2.65" stroke-linecap="round" stroke-linejoin="round"/>
<path d="M30.08 45.45V44.02C29.94 43.94 29.8 43.85 29.66 43.77C29.54 43.69 29.42 43.62 29.3 43.54C29.19 43.47 29.08 43.4 28.98 43.33C28.83 43.23 28.69 43.13 28.54 43.03C28.43 42.95 28.31 42.86 28.2 42.78C28.14 42.73 28.08 42.69 28.02 42.64C27.9 42.55 27.78 42.45 27.66 42.36C27.54 42.26 27.42 42.16 27.3 42.06C27.29 42.05 27.27 42.04 27.26 42.02C27.16 41.94 27.06 41.85 26.97 41.76C26.84 41.64 26.7 41.52 26.57 41.39C26.44 41.27 26.31 41.14 26.18 41.01C25.94 40.77 25.71 40.54 25.48 40.29C25.37 40.17 25.25 40.04 25.14 39.91C24.92 39.66 24.7 39.39 24.49 39.13C24.38 38.99 24.27 38.86 24.17 38.71C24.09 38.61 24.02 38.51 23.94 38.4C23.81 38.23 23.69 38.06 23.57 37.89C23.45 37.71 23.33 37.53 23.21 37.35C23.1 37.18 22.99 37.01 22.88 36.83C22.88 36.83 22.88 36.82 22.87 36.81C22.87 36.81 22.87 36.8 22.87 36.79C22.79 36.66 22.71 36.53 22.63 36.4C22.57 36.3 22.51 36.19 22.45 36.09C22.38 35.98 22.32 35.87 22.26 35.75C22.18 35.61 22.11 35.47 22.03 35.33C21.98 35.24 21.93 35.14 21.88 35.04C21.82 34.93 21.77 34.81 21.71 34.7C21.64 34.55 21.57 34.41 21.51 34.27C21.48 34.21 21.46 34.15 21.43 34.09C21.37 33.97 21.32 33.84 21.27 33.72C21.2 33.55 21.13 33.39 21.06 33.22C21.02 33.11 20.97 33.01 20.93 32.89C20.92 32.86 20.91 32.83 20.9 32.81C20.83 32.63 20.76 32.45 20.7 32.26C20.67 32.18 20.64 32.09 20.61 32C20.61 31.98 20.6 31.96 20.59 31.95C20.56 31.86 20.53 31.77 20.5 31.68C20.44 31.51 20.38 31.33 20.33 31.15C19.53 28.61 19.1 25.85 19.1 22.98C19.1 22.8 19.1 22.62 19.1 22.44C17.43 24.97 16.19 27.93 15.51 31.15C15.12 33 14.91 34.93 14.91 36.92C14.91 39.93 15.39 42.82 16.25 45.46V45.49H17.36L30.11 45.46L30.08 45.45Z" stroke="white" stroke-width="2.65" stroke-linecap="round" stroke-linejoin="round"/>
<path d="M16.23 45.48H5.63C3.32 41.24 2 36.35 2 31.14H15.47C15.08 32.99 14.87 34.92 14.87 36.91C14.87 39.92 15.35 42.81 16.21 45.45C16.21 45.46 16.21 45.47 16.22 45.48H16.23Z" stroke="white" stroke-width="2.65" stroke-linecap="round" stroke-linejoin="round"/>
<path d="M29.49 45.48C27.81 49.24 25.07 52.41 21.66 54.62C20.2 55.57 18.62 56.33 16.94 56.89C15.32 56 13.8 54.95 12.39 53.77C9.67001 51.48 7.36 48.66 5.63 45.48H29.49Z" stroke="white" stroke-width="2.65" stroke-linecap="round" stroke-linejoin="round"/>
<path d="M16.33 45.48H16.24C16.24 45.48 16.24 45.46 16.23 45.45C16.27 45.46 16.3 45.47 16.34 45.48H16.33Z" stroke="white" stroke-width="2.65" stroke-linecap="round" stroke-linejoin="round"/>
<path d="M41.1 22.23C41.1 22.01 41.08 21.79 41.07 21.57C41.07 21.54 41.07 21.5 41.07 21.47C41.07 21.45 41.07 21.43 41.07 21.41C41.07 21.39 41.07 21.36 41.07 21.34C41.06 21.15 41.05 20.95 41.03 20.76C41.03 20.69 41.02 20.62 41.01 20.55C40.99 20.32 40.97 20.1 40.94 19.87C40.94 19.86 40.94 19.85 40.94 19.83C40.92 19.63 40.9 19.44 40.87 19.24V19.22C40.85 19.11 40.84 19 40.82 18.89C40.77 18.53 40.71 18.16 40.64 17.81C40.62 17.7 40.6 17.59 40.58 17.48C40.54 17.3 40.5 17.11 40.46 16.92C40.44 16.83 40.42 16.75 40.4 16.67C40.4 16.65 40.4 16.64 40.39 16.62C40.35 16.43 40.3 16.24 40.25 16.05C40.11 15.5 39.95 14.96 39.78 14.43C38 9.00999 34.58 4.57 30.24 2.01H29.96C25.61 4.58 22.18 9.04 20.41 14.48C20.24 15 20.09 15.52 19.95 16.05C19.8 16.62 19.67 17.2 19.57 17.79C19.28 19.29 19.12 20.84 19.09 22.43C19.09 22.61 19.09 22.79 19.09 22.97C19.09 25.84 19.52 28.6 20.32 31.14C20.37 31.32 20.43 31.49 20.49 31.67C20.52 31.76 20.55 31.85 20.58 31.94C20.58 31.96 20.59 31.98 20.6 31.99C20.63 32.08 20.66 32.17 20.69 32.25C20.76 32.43 20.82 32.62 20.89 32.8C20.9 32.83 20.91 32.86 20.92 32.88C20.96 32.99 21 33.1 21.05 33.21C21.12 33.38 21.19 33.55 21.26 33.71C21.31 33.84 21.37 33.96 21.42 34.08C21.45 34.14 21.47 34.2 21.5 34.26C21.57 34.41 21.64 34.55 21.7 34.69C21.75 34.8 21.81 34.92 21.87 35.03C21.92 35.13 21.97 35.22 22.02 35.32C22.1 35.46 22.17 35.6 22.25 35.74C22.31 35.85 22.38 35.97 22.44 36.08C22.5 36.19 22.56 36.29 22.62 36.39C22.7 36.52 22.78 36.65 22.86 36.78C22.86 36.78 22.86 36.79 22.86 36.8C22.86 36.8 22.86 36.81 22.87 36.82C22.98 37 23.09 37.17 23.2 37.34C23.32 37.52 23.44 37.7 23.56 37.88C23.68 38.05 23.8 38.22 23.93 38.39C24.01 38.49 24.08 38.6 24.16 38.7C24.26 38.84 24.37 38.98 24.48 39.12C24.69 39.39 24.91 39.65 25.13 39.9C25.24 40.03 25.36 40.16 25.47 40.28C25.7 40.53 25.93 40.77 26.17 41C26.3 41.13 26.43 41.25 26.56 41.38C26.69 41.5 26.83 41.63 26.96 41.75C27.06 41.84 27.15 41.92 27.25 42.01C27.26 42.02 27.28 42.03 27.29 42.05C27.41 42.15 27.53 42.25 27.65 42.35C27.77 42.45 27.89 42.54 28.01 42.63C28.07 42.68 28.13 42.72 28.19 42.77C28.3 42.86 28.42 42.94 28.53 43.02C28.67 43.13 28.82 43.23 28.96 43.32C29.07 43.4 29.17 43.47 29.28 43.53C29.4 43.61 29.52 43.69 29.64 43.76C29.78 43.84 29.92 43.93 30.06 44.01C30.06 44.01 30.06 43.98 30.07 43.97C30.07 43.97 30.07 43.99 30.07 44C30.08 44 30.1 43.98 30.11 43.98C30.28 43.88 30.44 43.78 30.61 43.68C30.64 43.66 30.67 43.64 30.69 43.63C30.84 43.54 30.99 43.44 31.14 43.34C31.16 43.34 31.17 43.32 31.19 43.31C31.29 43.25 31.38 43.18 31.47 43.11C31.49 43.09 31.51 43.08 31.54 43.06C31.64 42.99 31.74 42.91 31.84 42.84C31.86 42.84 31.87 42.82 31.89 42.81C32 42.73 32.1 42.65 32.2 42.57C32.43 42.39 32.65 42.21 32.87 42.02C32.99 41.92 33.11 41.81 33.23 41.7C33.33 41.61 33.43 41.52 33.54 41.42C33.73 41.24 33.91 41.06 34.09 40.88C34.27 40.7 34.45 40.51 34.63 40.32C34.81 40.13 34.98 39.93 35.15 39.73C35.32 39.53 35.49 39.33 35.65 39.12C35.79 38.94 35.94 38.75 36.08 38.57C36.12 38.52 36.15 38.48 36.18 38.43C36.32 38.25 36.45 38.06 36.58 37.88C36.6 37.85 36.62 37.82 36.64 37.79C36.76 37.62 36.87 37.45 36.99 37.27C37.05 37.18 37.1 37.09 37.16 37C37.23 36.89 37.3 36.77 37.37 36.66C37.41 36.6 37.45 36.54 37.48 36.47C37.63 36.21 37.78 35.95 37.93 35.68C37.93 35.66 37.95 35.65 37.96 35.63C38.03 35.49 38.1 35.36 38.18 35.22C38.25 35.08 38.32 34.94 38.39 34.8C38.41 34.76 38.43 34.72 38.45 34.68C38.51 34.55 38.57 34.43 38.63 34.3C38.65 34.25 38.68 34.2 38.7 34.15C38.77 34 38.83 33.86 38.89 33.71C38.96 33.56 39.02 33.41 39.08 33.27C39.09 33.23 39.11 33.19 39.12 33.16C39.17 33.04 39.22 32.91 39.27 32.79C39.29 32.73 39.31 32.68 39.34 32.62C39.39 32.48 39.45 32.34 39.49 32.2C39.55 32.02 39.61 31.85 39.67 31.68C39.73 31.51 39.79 31.33 39.84 31.15C40.64 28.61 41.07 25.85 41.07 22.98C41.07 22.73 41.07 22.48 41.07 22.23H41.1ZM30.23 20.55C27.83 20.55 25.89 18.53 25.89 16.05C25.89 13.57 27.83 11.54 30.23 11.54C32.63 11.54 34.57 13.56 34.57 16.05C34.57 18.54 32.63 20.55 30.23 20.55Z" stroke="white" stroke-width="2.65" stroke-linecap="round" stroke-linejoin="round"/>
<path d="M34.57 16.05C34.57 18.54 32.63 20.55 30.23 20.55C27.83 20.55 25.89 18.53 25.89 16.05C25.89 13.57 27.83 11.54 30.23 11.54C32.63 11.54 34.57 13.56 34.57 16.05Z" stroke="white" stroke-width="2.65" stroke-linecap="round" stroke-linejoin="round"/>
<path d="M58.17 31.14H44.83C44.13 27.83 42.84 24.8 41.1 22.23C41.1 22.01 41.09 21.79 41.07 21.57C41.07 21.54 41.07 21.5 41.07 21.47C41.07 21.45 41.07 21.43 41.07 21.41C41.07 21.39 41.07 21.36 41.07 21.34C41.06 21.15 41.05 20.95 41.03 20.76C41.03 20.69 41.02 20.62 41.01 20.55C40.99 20.32 40.97 20.1 40.94 19.87C40.94 19.86 40.94 19.85 40.94 19.83C40.92 19.63 40.89 19.44 40.87 19.24V19.22C40.85 19.11 40.84 19 40.82 18.89C40.77 18.53 40.71 18.16 40.64 17.81C40.62 17.7 40.6 17.59 40.58 17.48C40.54 17.3 40.5 17.11 40.46 16.92C40.44 16.83 40.42 16.75 40.4 16.67C40.4 16.65 40.4 16.64 40.39 16.62C40.35 16.43 40.3 16.24 40.25 16.05H54.04C54.04 16.05 54.1 16.06 54.13 16.07C56 19.27 57.29 22.87 57.86 26.73C58.07 28.17 58.18 29.65 58.18 31.15L58.17 31.14Z" stroke="white" stroke-width="2.65" stroke-linecap="round" stroke-linejoin="round"/>
<path d="M40.8 18.88C40.75 18.52 40.69 18.15 40.62 17.8C40.69 18.16 40.75 18.52 40.8 18.88Z" stroke="white" stroke-width="2.65" stroke-linecap="round" stroke-linejoin="round"/>
<path d="M35.47 45.48H30.7L30.1 44C30.1 44 30.13 43.98 30.14 43.98C30.31 43.88 30.47 43.78 30.64 43.68C30.67 43.66 30.7 43.64 30.72 43.63C30.87 43.54 31.02 43.44 31.17 43.34C31.18 43.34 31.2 43.32 31.21 43.31C31.31 43.25 31.4 43.18 31.5 43.11C31.52 43.09 31.54 43.08 31.57 43.06C31.67 42.99 31.77 42.91 31.87 42.84C31.89 42.84 31.9 42.82 31.92 42.81C32.03 42.73 32.13 42.65 32.23 42.57C32.46 42.39 32.68 42.21 32.9 42.02C33.02 41.92 33.14 41.81 33.26 41.7C33.36 41.61 33.46 41.52 33.57 41.42C33.76 41.24 33.94 41.06 34.12 40.88C34.3 40.7 34.48 40.51 34.66 40.32C34.84 40.13 35.01 39.93 35.18 39.73C35.35 39.53 35.52 39.33 35.68 39.12C35.82 38.94 35.97 38.75 36.11 38.57C36.15 38.52 36.18 38.48 36.21 38.43C36.34 38.25 36.48 38.06 36.61 37.88C36.63 37.85 36.65 37.82 36.67 37.79C36.79 37.62 36.9 37.45 37.02 37.27C37.08 37.18 37.13 37.09 37.19 37C37.26 36.89 37.33 36.77 37.4 36.66C37.44 36.6 37.48 36.54 37.51 36.47C37.66 36.21 37.81 35.95 37.96 35.68C37.96 35.66 37.98 35.65 37.99 35.63C38.06 35.49 38.13 35.36 38.21 35.22C38.28 35.08 38.35 34.94 38.42 34.8C38.44 34.76 38.46 34.72 38.48 34.68C38.54 34.55 38.6 34.43 38.66 34.3C38.68 34.25 38.71 34.2 38.73 34.15C38.8 34 38.86 33.86 38.92 33.71C38.99 33.56 39.05 33.41 39.11 33.27C39.12 33.23 39.14 33.19 39.15 33.16C39.2 33.04 39.25 32.91 39.3 32.79C39.32 32.73 39.35 32.68 39.37 32.62C39.42 32.48 39.48 32.34 39.52 32.2C39.58 32.02 39.64 31.85 39.7 31.68C39.76 31.51 39.82 31.33 39.87 31.15C40.67 28.61 41.1 25.85 41.1 22.98C41.1 22.73 41.1 22.48 41.1 22.23C42.84 24.81 44.13 27.84 44.83 31.14C45.22 32.99 45.43 34.92 45.43 36.91C45.43 39.9 44.96 42.77 44.1 45.4L44.07 45.48H35.48H35.47Z" stroke="white" stroke-width="2.65" stroke-linecap="round" stroke-linejoin="round"/>
<path d="M43.24 56.89C39.99 58.68 36.36 59.83 32.51 60.17C31.71 60.24 30.9 60.28 30.09 60.28C29.28 60.28 28.51 60.25 27.74 60.18C23.87 59.85 20.22 58.7 16.95 56.9C18.63 56.34 20.21 55.57 21.67 54.63C25.52 52.14 28.51 48.42 30.09 44.03C30.1 44.03 30.11 44.04 30.12 44.05C31.71 48.46 34.72 52.19 38.6 54.68C40.04 55.6 41.59 56.36 43.24 56.91V56.89Z" stroke="white" stroke-width="2.65" stroke-linecap="round" stroke-linejoin="round"/>
<path d="M30.7 45.48C32.39 49.26 35.15 52.45 38.59 54.66C40.03 55.58 41.58 56.34 43.23 56.89C45.03 55.9 46.71 54.71 48.25 53.36C50.76 51.15 52.89 48.48 54.53 45.49H30.7V45.48Z" stroke="white" stroke-width="2.65" stroke-linecap="round" stroke-linejoin="round"/>
<path d="M58.17 31.14C58.17 36.35 56.85 41.25 54.54 45.48H44.07C44.07 45.48 44.09 45.42 44.1 45.4C44.96 42.77 45.43 39.9 45.43 36.91C45.43 34.92 45.22 32.99 44.83 31.14H58.17Z" stroke="white" stroke-width="2.65" stroke-linecap="round" stroke-linejoin="round"/>
<path d="M44.09 45.4C44.09 45.4 44.07 45.46 44.06 45.48H43.84C43.92 45.45 44.01 45.42 44.09 45.4Z" stroke="white" stroke-width="2.65" stroke-linecap="round" stroke-linejoin="round"/>
<path d="M69.35 10.51H74.98V16.85V17.35H74.99V27.84H74.98V28.34V33.3V33.8H74.99V34.53V35.03V46.12V46.62V52.95H69.35V45.6V10.51ZM75.99 34.0435V33.7923C78.3513 33.7204 80.4073 33.1436 82.1473 32.0425C82.3848 31.8922 82.6151 31.7366 82.8381 31.5755C83.5102 31.9948 84.0906 32.4896 84.5819 33.0572C86.4292 35.1917 87.36 37.7439 87.36 40.73C87.36 42.6937 86.9832 44.5995 86.2173 46.4706C85.4656 48.3069 84.2287 49.8433 82.4704 51.0924C80.8481 52.2449 78.7034 52.8754 75.99 52.9438V47.1083C77.1914 47.0507 78.2256 46.7794 79.06 46.262V46.4657L79.9193 45.5777C80.9495 44.5132 81.42 42.8579 81.42 40.73C81.42 38.6024 80.9497 36.8537 79.8978 35.7113C78.9441 34.6756 77.6263 34.1334 75.99 34.0435ZM85.4459 27.1103C84.7947 28.3692 83.9002 29.4555 82.7596 30.3775C80.9563 29.4273 78.6884 28.9381 75.99 28.8849V28.8243C77.5414 28.7262 78.7652 28.1672 79.5623 27.0869L79.66 26.9545V26.9298C80.4388 25.7972 80.81 24.2771 80.81 22.43C80.81 20.5092 80.3959 18.9752 79.4806 17.9178C78.6475 16.9554 77.4606 16.4569 75.99 16.3655V10.5268C78.4963 10.5944 80.5221 11.1657 82.0827 12.206C83.7771 13.3357 84.9679 14.7595 85.6668 16.4783C86.3834 18.2408 86.75 20.057 86.75 21.94C86.75 23.8037 86.3222 25.4346 85.4469 27.1083L85.4459 27.1103ZM75.99 32.7918V29.8851C78.3492 29.9334 80.2951 30.3271 81.8496 31.0439C81.7716 31.0957 81.6926 31.1469 81.6126 31.1975C80.0557 32.1827 78.1904 32.7205 75.99 32.7918Z" fill="white" stroke="white"/>
<path d="M93.4561 50.7833L93.4549 50.7821C92.0454 49.3274 91.0242 47.1019 90.4147 44.0333C89.8143 40.9576 89.5 36.8634 89.5 31.73C89.5 26.5948 89.8041 22.5016 90.4146 19.4274L90.4149 19.4258C91.0135 16.3595 92.0447 14.1333 93.4549 12.6779C94.8382 11.2502 96.8149 10.51 99.46 10.51C102.105 10.51 104.092 11.2599 105.465 12.6778L105.465 12.6779C106.875 14.1326 107.896 16.3581 108.505 19.4267C109.106 22.5024 109.42 26.5966 109.42 31.73C109.42 36.8652 109.116 40.9584 108.505 44.0326L108.505 44.0342C107.906 47.1004 106.875 49.3266 105.465 50.7821C104.082 52.2098 102.105 52.95 99.46 52.95C96.8137 52.95 94.8279 52.2092 93.4561 50.7833ZM96.1167 22.668L96.1165 22.6705C95.9039 24.8052 95.7989 27.8347 95.7989 31.74C95.7989 35.6453 95.9039 38.6747 96.1165 40.8095C96.3267 42.9215 96.6574 44.496 97.1569 45.4493C97.4041 45.936 97.7176 46.3322 98.1126 46.6068C98.5136 46.8855 98.9718 47.02 99.4705 47.02C99.9692 47.02 100.427 46.8855 100.828 46.6068C101.224 46.3319 101.538 45.935 101.785 45.4475C102.273 44.4968 102.604 42.9243 102.814 40.8095C103.027 38.6747 103.132 35.6453 103.132 31.74C103.132 27.8347 103.027 24.8053 102.814 22.6705C102.604 20.5551 102.272 18.9824 101.785 18.0318C101.28 17.0484 100.501 16.46 99.4705 16.46C98.4431 16.46 97.6613 17.0357 97.1552 18.0339C96.6693 18.9923 96.3378 20.5527 96.1167 22.668Z" fill="white" stroke="white"/>
<path d="M117.236 50.7833L117.235 50.7821C115.825 49.3274 114.804 47.1019 114.195 44.0333C113.594 40.9576 113.28 36.8634 113.28 31.73C113.28 26.5948 113.584 22.5016 114.195 19.4274L114.195 19.4258C114.794 16.3595 115.825 14.1333 117.235 12.6779C118.618 11.2502 120.595 10.51 123.24 10.51C125.885 10.51 127.872 11.2599 129.245 12.6778L129.245 12.6779C130.655 14.1326 131.676 16.3581 132.285 19.4267C132.886 22.5024 133.2 26.5966 133.2 31.73C133.2 36.8652 132.896 40.9584 132.285 44.0326L132.285 44.0342C131.686 47.1004 130.655 49.3266 129.245 50.7821C127.862 52.2098 125.885 52.95 123.24 52.95C120.594 52.95 118.608 52.2092 117.236 50.7833ZM119.897 22.668L119.896 22.6705C119.684 24.8053 119.579 27.8347 119.579 31.74C119.579 35.6453 119.684 38.6747 119.896 40.8095C120.107 42.9215 120.437 44.496 120.937 45.4493C121.184 45.936 121.498 46.3322 121.893 46.6068C122.294 46.8855 122.752 47.02 123.251 47.02C123.749 47.02 124.207 46.8855 124.608 46.6068C125.004 46.3319 125.318 45.9349 125.565 45.4475C126.052 44.4968 126.384 42.9243 126.594 40.8095C126.807 38.6747 126.912 35.6453 126.912 31.74C126.912 27.8347 126.807 24.8053 126.594 22.6705C126.384 20.5551 126.052 18.9824 125.565 18.0318C125.06 17.0484 124.281 16.46 123.251 16.46C122.223 16.46 121.441 17.0357 120.935 18.0339C120.449 18.9923 120.118 20.5527 119.897 22.668Z" fill="white" stroke="white"/>
<path d="M150.27 13.4325V13.4399L150.343 13.5595C151.555 15.5559 152.213 18.8062 152.258 23.39H146.618C146.608 21.8831 146.548 20.6587 146.436 19.7304C146.315 18.717 146.116 17.8996 145.8 17.3656C145.448 16.7684 144.891 16.46 144.19 16.46C143.786 16.46 143.406 16.5402 143.082 16.7325C142.753 16.9282 142.514 17.22 142.367 17.5814C142.112 18.2063 142 19.0193 142 19.97C142 21.3921 142.375 22.7739 143.121 24.1298C143.839 25.4519 144.956 27.1045 146.451 29.0816L146.453 29.0834C147.735 30.7637 148.787 32.2621 149.628 33.5688C150.447 34.8656 151.151 36.3115 151.719 37.8978C152.279 39.472 152.57 41.1551 152.57 42.95C152.57 44.9468 152.249 46.6877 151.61 48.1837C150.974 49.6735 150.043 50.8345 148.8 51.6759C147.563 52.5128 146.074 52.95 144.31 52.95C141.117 52.95 138.967 51.7608 137.72 49.4432C136.474 47.1262 135.81 43.8169 135.763 39.47H141.402C141.416 40.9906 141.496 42.2688 141.645 43.2917C141.809 44.4269 142.072 45.3285 142.467 45.9564C142.884 46.6195 143.483 47 144.25 47C144.664 47 145.048 46.8883 145.38 46.6493C145.707 46.4135 145.952 46.0759 146.128 45.6705C146.465 44.9066 146.62 43.9622 146.62 42.88C146.62 41.1885 146.22 39.6048 145.408 38.1482C144.629 36.7253 143.422 34.9623 141.806 32.8649L141.804 32.862C140.521 31.2213 139.51 29.8137 138.75 28.6488C138.012 27.4935 137.369 26.1789 136.842 24.6836C136.322 23.2105 136.06 21.6371 136.06 19.96C136.06 17.0651 136.787 14.7873 138.206 13.0682C139.606 11.3711 141.575 10.5 144.19 10.5C147.057 10.5 149.043 11.4988 150.27 13.4325Z" fill="white" stroke="white"/>
<path d="M158.96 45.72H158.97V45.22V16.65V16.15H158.47H154.14V10.51H169.43V16.15H165.1H164.6V16.65V52.95H158.96V45.72Z" fill="white" stroke="white"/>
<path d="M178.78 33.95V28.31H184.42V33.95H178.78ZM178.27 46.72H186.22V52.96H172.14V45.23V45.22V10.52H186.22V16.76H178.27H177.77V17.26V46.22V46.72H178.27Z" fill="white" stroke="white"/>
<path d="M203.435 34.3208C202.94 34.9158 202.403 35.4366 201.822 35.8829L200.965 33.2645L200.847 32.9042L200.469 32.9205C199.546 32.9601 198.593 32.98 197.62 32.98H194.81H194.27L194.311 33.5181L194.551 36.6581L194.556 36.7139L194.572 36.7674L194.96 38.0241V38.38V52.96H189.32V45.23V45.22V10.52H195.46C198.879 10.52 201.525 11.6341 203.476 13.8222C205.407 15.9984 206.43 19.8307 206.43 24.2C206.43 28.5468 205.407 31.9391 203.435 34.3208ZM195.959 37.871L195.544 36.5261L195.35 33.98H197.62C198.474 33.98 199.314 33.9649 200.132 33.9347L200.962 36.4701C199.529 37.3336 197.865 37.802 195.959 37.871ZM201.28 37.4429L206.357 52.95H200.424L196.256 38.8585C198.133 38.7557 199.811 38.2839 201.28 37.4429ZM199.251 30.355L199.253 30.3525C200.101 29.1126 200.49 27.1235 200.49 24.49C200.49 21.8603 200.113 19.8684 199.252 18.6263C198.386 17.3631 197.092 16.75 195.46 16.75H194.96V17.25V31.73V32.23H195.46C197.094 32.23 198.377 31.6151 199.251 30.355Z" fill="white" stroke="white"/>
</svg>
