
<svg width="136" height="44" viewBox="0 0 136 44" fill="none" xmlns="http://www.w3.org/2000/svg">
<path d="M0.5 0.509995H6.13V6.84999V7.34999H6.14001V17.84H6.13V18.34V23.3V23.8H6.14001V24.53V25.03V36.12V36.62V42.95H0.5V35.6V0.509995ZM7.14001 24.0435V23.7923C9.5013 23.7204 11.5573 23.1436 13.2973 22.0425C13.5348 21.8922 13.7651 21.7366 13.9881 21.5755C14.6602 21.9948 15.2406 22.4896 15.7319 23.0572C17.5792 25.1917 18.51 27.7439 18.51 30.73C18.51 32.6937 18.1332 34.5995 17.3673 36.4706C16.6156 38.3069 15.3787 39.8433 13.6204 41.0924C11.9981 42.2449 9.85338 42.8754 7.14001 42.9438V37.1083C8.3414 37.0507 9.37555 36.7794 10.21 36.262V36.4657L11.0693 35.5777C12.0995 34.5132 12.57 32.8579 12.57 30.73C12.57 28.6024 12.0997 26.8537 11.0478 25.7113C10.0941 24.6756 8.77629 24.1334 7.14001 24.0435ZM16.5959 17.1103C15.9447 18.3692 15.0502 19.4555 13.9096 20.3775C12.1063 19.4273 9.83844 18.9381 7.14001 18.8849V18.8243C8.69136 18.7262 9.91519 18.1672 10.7123 17.0869L10.81 16.9545V16.9298C11.5888 15.7972 11.96 14.2771 11.96 12.43C11.96 10.5092 11.5459 8.97524 10.6306 7.91776C9.79753 6.95538 8.61056 6.45687 7.14001 6.36547V0.526794C9.64629 0.594408 11.6721 1.16567 13.2327 2.20602C14.9271 3.33566 16.1179 4.75946 16.8168 6.47832C17.5334 8.24077 17.9 10.057 17.9 11.94C17.9 13.8037 17.4722 15.4346 16.5969 17.1083L16.5959 17.1103ZM7.14001 22.7918V19.8851C9.49923 19.9334 11.4451 20.3271 12.9996 21.0439C12.9215 21.0957 12.8425 21.1469 12.7626 21.1975C11.2057 22.1827 9.34037 22.7205 7.14001 22.7918Z" fill="white" stroke="white"/>
<path d="M26.9021 12.6728L26.9024 12.6705C27.1128 10.5559 27.4282 8.99849 27.8896 8.04262C28.3685 7.05062 29.1174 6.45999 30.1199 6.45999C31.1249 6.45999 31.872 7.06344 32.3492 8.04058C32.8122 8.9886 33.1272 10.5582 33.3277 12.6728C33.5299 14.8064 33.6299 17.835 33.6299 21.74C33.6299 25.645 33.5299 28.6736 33.3277 30.8072C33.1273 32.9211 32.8124 34.4905 32.3496 35.4386M26.9021 12.6728L32.3492 35.4394C32.3493 35.4391 32.3495 35.4389 32.3496 35.4386M26.9021 12.6728C26.6999 14.8064 26.5999 17.835 26.5999 21.74C26.5999 25.645 26.6999 28.6736 26.9021 30.8072C27.1022 32.9184 27.4168 34.4898 27.8911 35.4405M26.9021 12.6728L27.8911 35.4405M32.3496 35.4386C32.1149 35.9243 31.816 36.3227 31.4359 36.6001C31.0493 36.8823 30.6048 37.02 30.1199 37.02C29.6349 37.02 29.1904 36.8823 28.8038 36.6001C28.4243 36.323 28.1257 35.9254 27.8911 35.4405M32.3496 35.4386L27.8911 35.4405M24.4185 40.7922L24.4174 40.7909C23.0759 39.337 22.1024 37.11 21.5213 34.0381C20.9492 30.9603 20.6499 26.8644 20.6499 21.73C20.6499 16.5941 20.9394 12.4991 21.5211 9.42291L21.5214 9.42138C22.0921 6.35149 23.0753 4.12374 24.4174 2.66904C25.7305 1.24569 27.603 0.509995 30.1099 0.509995C32.6163 0.509995 34.4989 1.2554 35.8023 2.66894L35.8024 2.66904C37.1438 4.12301 38.1174 6.34998 38.6984 9.42193C39.2705 12.4997 39.5699 16.5956 39.5699 21.73C39.5699 26.8659 39.2803 30.9609 38.6986 34.0371L38.6983 34.0386C38.1276 37.1085 37.1445 39.3362 35.8024 40.7909C34.4892 42.2143 32.6167 42.95 30.1099 42.95C27.6018 42.95 25.7208 42.2137 24.4185 40.7922Z" fill="white" stroke="white"/>
<path d="M48.6822 12.6728L48.6824 12.6705C48.8928 10.5559 49.2082 8.99849 49.6697 8.04262C50.1486 7.0506 50.8975 6.45999 51.9 6.45999C52.905 6.45999 53.652 7.06346 54.1292 8.04058C54.5922 8.9886 54.9073 10.5582 55.1077 12.6728C55.3099 14.8064 55.4099 17.835 55.4099 21.74C55.4099 25.645 55.3099 28.6736 55.1077 30.8072C54.9073 32.9211 54.5924 34.4905 54.1296 35.4386M48.6822 12.6728L54.1292 35.4394C54.1293 35.4391 54.1295 35.4389 54.1296 35.4386M48.6822 12.6728C48.4799 14.8064 48.3799 17.835 48.3799 21.74C48.3799 25.645 48.4799 28.6736 48.6822 30.8072C48.8823 32.9184 49.1968 34.4898 49.6712 35.4405M48.6822 12.6728L49.6712 35.4405M54.1296 35.4386C53.895 35.9243 53.596 36.3227 53.216 36.6001C52.8294 36.8823 52.3849 37.02 51.9 37.02C51.415 37.02 50.9705 36.8823 50.5839 36.6001C50.2044 36.3231 49.9057 35.9254 49.6712 35.4405M54.1296 35.4386L49.6712 35.4405M46.1986 40.7922L46.1974 40.7909C44.856 39.337 43.8824 37.11 43.3014 34.0381C42.7293 30.9603 42.4299 26.8644 42.4299 21.73C42.4299 16.5941 42.7195 12.4991 43.3012 9.42291L43.3015 9.42138C43.8722 6.35149 44.8554 4.12374 46.1974 2.66904C47.5106 1.24569 49.3831 0.509995 51.89 0.509995C54.3964 0.509995 56.279 1.2554 57.5824 2.66894L57.5825 2.66904C58.9239 4.12301 59.8974 6.34997 60.4784 9.42193C61.0505 12.4997 61.3499 16.5956 61.3499 21.73C61.3499 26.8659 61.0603 30.9609 60.4786 34.0371L60.4783 34.0386C59.9076 37.1085 58.9245 39.3362 57.5825 40.7909C56.2693 42.2143 54.3968 42.95 51.89 42.95C49.3819 42.95 47.5009 42.2137 46.1986 40.7922Z" fill="white" stroke="white"/>
<path d="M78.4199 3.43254V3.43993L78.4926 3.55954C79.705 5.5559 80.3633 8.80616 80.4075 13.39H74.7682C74.7576 11.8831 74.6978 10.6587 74.5864 9.73042C74.4648 8.71704 74.2659 7.89957 73.9504 7.36563C73.5975 6.76837 73.0409 6.45999 72.34 6.45999C71.9357 6.45999 71.5564 6.5402 71.2323 6.7325C70.9024 6.92823 70.6641 7.22003 70.5169 7.58136C70.2623 8.20626 70.15 9.01931 70.15 9.97C70.15 11.3921 70.5252 12.7739 71.2712 14.1298C71.9888 15.4519 73.1058 17.1045 74.6012 19.0816L74.6025 19.0834C75.8851 20.7637 76.9368 22.2621 77.7784 23.5688C78.5972 24.8656 79.301 26.3115 79.869 27.8978C80.4291 29.472 80.7199 31.1551 80.7199 32.95C80.7199 34.9468 80.3985 36.6877 79.76 38.1837C79.1243 39.6735 78.1931 40.8345 76.9497 41.6759C75.7129 42.5128 74.2235 42.95 72.46 42.95C69.2669 42.95 67.1168 41.7608 65.8703 39.4432C64.6241 37.1262 63.9596 33.8169 63.9126 29.47H69.5522C69.5664 30.9906 69.6463 32.2688 69.7951 33.2917C69.9587 34.4269 70.2215 35.3285 70.6168 35.9564C71.0343 36.6195 71.6334 37 72.4 37C72.8135 37 73.1984 36.8883 73.5299 36.6493C73.8569 36.4135 74.1016 36.0759 74.278 35.6705C74.6147 34.9066 74.77 33.9622 74.77 32.88C74.77 31.1885 74.3699 29.6048 73.5576 28.1482C72.7794 26.7253 71.5717 24.9623 69.956 22.8649L69.9538 22.862C68.6711 21.2213 67.6603 19.8137 66.9 18.6488C66.1624 17.4935 65.5192 16.1789 64.9915 14.6836C64.4715 13.2105 64.21 11.6371 64.21 9.95999C64.21 7.06511 64.9371 4.78733 66.3556 3.06822C67.7559 1.37114 69.7245 0.5 72.34 0.5C75.2066 0.5 77.1926 1.49881 78.4199 3.43254Z" fill="white" stroke="white"/>
<path d="M87.11 35.72H87.1201V35.22V6.64999V6.14999H86.6201H82.29V0.509995H97.5801V6.14999H93.2501H92.7501V6.64999V42.95H87.11V35.72Z" fill="white" stroke="white"/>
<path d="M106.93 23.95V18.31H112.57V23.95H106.93ZM106.42 36.72H114.37V42.96H100.29V35.23V35.22V0.520004H114.37V6.76H106.42H105.92V7.26V36.22V36.72H106.42Z" fill="white" stroke="white"/>
<path d="M131.585 24.3208C131.09 24.9158 130.553 25.4366 129.972 25.8829L129.115 23.2645L128.997 22.9042L128.619 22.9205C127.696 22.9601 126.743 22.98 125.77 22.98H122.96H122.42L122.461 23.5181L122.701 26.6581L122.706 26.7139L122.722 26.7674L123.11 28.0241V28.38V42.96H117.47V35.23V35.22V0.520004H123.61C127.029 0.520004 129.675 1.63413 131.626 3.82234C133.557 5.99863 134.58 9.83084 134.58 14.2C134.58 18.5468 133.557 21.9391 131.585 24.3208ZM124.109 27.871L123.694 26.5261L123.5 23.98H125.77C126.624 23.98 127.464 23.9649 128.282 23.9347L129.112 26.4701C127.679 27.3336 126.015 27.802 124.109 27.871ZM129.43 27.4429L134.507 42.95H128.574L124.406 28.8585C126.283 28.7557 127.961 28.2839 129.43 27.4429ZM127.401 20.355L127.403 20.3525C128.251 19.1126 128.64 17.1235 128.64 14.49C128.64 11.8603 128.263 9.86832 127.402 8.62624C126.536 7.36311 125.241 6.75001 123.61 6.75001H123.11V7.25001V21.73V22.23H123.61C125.244 22.23 126.527 21.6151 127.401 20.355Z" fill="white" stroke="white"/>
</svg>
