<svg width="60" height="62" viewBox="0 0 60 62" fill="none" xmlns="http://www.w3.org/2000/svg">
<path d="M54.2697 16.07C54.2697 16.07 54.2097 16.06 54.1797 16.05H54.2597C54.2597 16.05 54.2597 16.06 54.2597 16.07H54.2697Z" stroke="white" stroke-width="2.65" stroke-linecap="round" stroke-linejoin="round"/>
<path d="M54.2601 16.05H40.3801C40.2401 15.5 40.0801 14.96 39.9101 14.43C38.1301 9.01 34.7101 4.57001 30.3701 2.01001C40.5001 2.06001 49.3501 7.67001 54.2601 16.05Z" stroke="white" stroke-width="2.65" stroke-linecap="round" stroke-linejoin="round"/>
<path d="M30.1 2C25.75 4.57 22.32 9.03 20.55 14.47C20.39 14.99 20.23 15.51 20.09 16.04H6.20996C11.11 7.65999 19.97 2.05 30.1 2Z" stroke="white" stroke-width="2.65" stroke-linecap="round" stroke-linejoin="round"/>
<path d="M6.31995 16.05C6.31995 16.05 6.23994 16.07 6.18994 16.07C6.18994 16.07 6.18995 16.05 6.19995 16.05H6.30994H6.31995Z" stroke="white" stroke-width="2.65" stroke-linecap="round" stroke-linejoin="round"/>
<path d="M30.2697 44.04C30.2697 44.04 30.2497 44.03 30.2397 44.02C30.2397 44.02 30.2598 44.02 30.2598 44.01C30.2598 44.01 30.2597 44.03 30.2697 44.04Z" stroke="white" stroke-width="2.65" stroke-linecap="round" stroke-linejoin="round"/>
<path d="M16.4799 45.48H16.3899C16.3899 45.48 16.3899 45.46 16.3799 45.45C16.4199 45.46 16.4499 45.47 16.4899 45.48H16.4799Z" stroke="white" stroke-width="2.65" stroke-linecap="round" stroke-linejoin="round"/>
<path d="M44.2397 45.4C44.2397 45.4 44.2197 45.46 44.2097 45.48H43.9897C44.0697 45.45 44.1597 45.42 44.2397 45.4Z" stroke="white" stroke-width="2.65" stroke-linecap="round" stroke-linejoin="round"/>
<path d="M30.2598 44.01C30.2598 44.01 30.2497 44.01 30.2397 44.02C30.2397 44.01 30.2398 43.99 30.2498 43.98C30.2498 43.98 30.2498 44 30.2498 44.01H30.2598Z" stroke="white" stroke-width="2.65" stroke-linecap="round" stroke-linejoin="round"/>
<path d="M20.0899 16.05C19.9399 16.62 19.8099 17.2 19.7099 17.79C19.4199 19.29 19.2599 20.84 19.2299 22.43C17.5599 24.96 16.3199 27.92 15.6399 31.14H2.16992C2.16992 29.64 2.2799 28.16 2.4899 26.72C3.0499 22.87 4.3399 19.27 6.2099 16.07C6.2499 16.07 6.2899 16.05 6.3399 16.05H20.1099H20.0899Z" stroke="white" stroke-width="2.65" stroke-linecap="round" stroke-linejoin="round"/>
<path d="M30.2301 45.45V44.02C30.0901 43.94 29.9501 43.85 29.8101 43.77C29.6901 43.69 29.5701 43.62 29.4501 43.54C29.3401 43.47 29.2301 43.4 29.1301 43.33C28.9801 43.23 28.8401 43.13 28.6901 43.03C28.5801 42.95 28.4601 42.86 28.3501 42.78C28.2901 42.73 28.2301 42.69 28.1701 42.64C28.0501 42.55 27.9301 42.45 27.8101 42.36C27.6901 42.26 27.5701 42.16 27.4501 42.06C27.4401 42.05 27.4201 42.04 27.4101 42.02C27.3101 41.94 27.2101 41.85 27.1201 41.76C26.9901 41.64 26.8501 41.52 26.7201 41.39C26.5901 41.27 26.46 41.14 26.33 41.01C26.09 40.77 25.8601 40.54 25.6301 40.29C25.5201 40.17 25.4001 40.04 25.2901 39.91C25.0701 39.66 24.8501 39.39 24.6401 39.13C24.5301 38.99 24.4201 38.86 24.3201 38.71C24.2401 38.61 24.1701 38.51 24.0901 38.4C23.9601 38.23 23.8401 38.06 23.7201 37.89C23.6001 37.71 23.48 37.53 23.36 37.35C23.25 37.18 23.1401 37.01 23.0301 36.83C23.0301 36.83 23.0301 36.82 23.0201 36.81C23.0201 36.81 23.0201 36.8 23.0201 36.79C22.9401 36.66 22.8601 36.53 22.7801 36.4C22.7201 36.3 22.6601 36.19 22.6001 36.09C22.5301 35.98 22.4701 35.87 22.4101 35.75C22.3301 35.61 22.2601 35.47 22.1801 35.33C22.1301 35.24 22.0801 35.14 22.0301 35.04C21.9701 34.93 21.92 34.81 21.86 34.7C21.79 34.55 21.7201 34.41 21.6601 34.27C21.6301 34.21 21.61 34.15 21.58 34.09C21.52 33.97 21.4701 33.84 21.4201 33.72C21.3501 33.55 21.2801 33.39 21.2101 33.22C21.1701 33.11 21.12 33.01 21.08 32.89C21.07 32.86 21.06 32.83 21.05 32.81C20.98 32.63 20.9101 32.45 20.8501 32.26C20.8201 32.18 20.7901 32.09 20.7601 32C20.7601 31.98 20.7501 31.96 20.7401 31.95C20.7101 31.86 20.6801 31.77 20.6501 31.68C20.5901 31.51 20.5301 31.33 20.4801 31.15C19.6801 28.61 19.2501 25.85 19.2501 22.98C19.2501 22.8 19.2501 22.62 19.2501 22.44C17.5801 24.97 16.3401 27.93 15.6601 31.15C15.2701 33 15.0601 34.93 15.0601 36.92C15.0601 39.93 15.5401 42.82 16.4001 45.46V45.49H17.5101L30.2601 45.46L30.2301 45.45Z" stroke="white" stroke-width="2.65" stroke-linecap="round" stroke-linejoin="round"/>
<path d="M16.3799 45.48H5.77991C3.46991 41.24 2.1499 36.35 2.1499 31.14H15.6199C15.2299 32.99 15.0199 34.92 15.0199 36.91C15.0199 39.92 15.4999 42.81 16.3599 45.45C16.3599 45.46 16.3599 45.47 16.3699 45.48H16.3799Z" stroke="white" stroke-width="2.65" stroke-linecap="round" stroke-linejoin="round"/>
<path d="M29.6398 45.48C27.9598 49.24 25.2198 52.41 21.8098 54.62C20.3498 55.57 18.7698 56.33 17.0898 56.89C15.4698 56 13.9498 54.95 12.5398 53.77C9.81979 51.48 7.50979 48.66 5.77979 45.48H29.6398Z" stroke="white" stroke-width="2.65" stroke-linecap="round" stroke-linejoin="round"/>
<path d="M16.4799 45.48H16.3899C16.3899 45.48 16.3899 45.46 16.3799 45.45C16.4199 45.46 16.4499 45.47 16.4899 45.48H16.4799Z" stroke="white" stroke-width="2.65" stroke-linecap="round" stroke-linejoin="round"/>
<path d="M41.2498 22.23C41.2498 22.01 41.2298 21.79 41.2198 21.57C41.2198 21.54 41.2198 21.5 41.2198 21.47C41.2198 21.45 41.2198 21.43 41.2198 21.41C41.2198 21.39 41.2198 21.36 41.2198 21.34C41.2098 21.15 41.1997 20.95 41.1797 20.76C41.1797 20.69 41.1698 20.62 41.1598 20.55C41.1398 20.32 41.1198 20.1 41.0898 19.87C41.0898 19.86 41.0898 19.85 41.0898 19.83C41.0698 19.63 41.0497 19.44 41.0197 19.24V19.22C40.9997 19.11 40.9898 19 40.9698 18.89C40.9198 18.53 40.8598 18.16 40.7898 17.81C40.7698 17.7 40.7498 17.59 40.7298 17.48C40.6898 17.3 40.6497 17.11 40.6097 16.92C40.5897 16.83 40.5697 16.75 40.5497 16.67C40.5497 16.65 40.5498 16.64 40.5398 16.62C40.4998 16.43 40.4497 16.24 40.3997 16.05C40.2597 15.5 40.0997 14.96 39.9297 14.43C38.1497 9.01 34.7298 4.57001 30.3898 2.01001H30.1097C25.7597 4.58001 22.3298 9.04 20.5598 14.48C20.3898 15 20.2398 15.52 20.0998 16.05C19.9498 16.62 19.8198 17.2 19.7198 17.79C19.4298 19.29 19.2697 20.84 19.2397 22.43C19.2397 22.61 19.2397 22.79 19.2397 22.97C19.2397 25.84 19.6698 28.6 20.4698 31.14C20.5198 31.32 20.5798 31.49 20.6398 31.67C20.6698 31.76 20.6998 31.85 20.7298 31.94C20.7298 31.96 20.7398 31.98 20.7498 31.99C20.7798 32.08 20.8098 32.17 20.8398 32.25C20.9098 32.43 20.9698 32.62 21.0398 32.8C21.0498 32.83 21.0598 32.86 21.0698 32.88C21.1098 32.99 21.1498 33.1 21.1998 33.21C21.2698 33.38 21.3398 33.55 21.4098 33.71C21.4598 33.84 21.5198 33.96 21.5698 34.08C21.5998 34.14 21.6197 34.2 21.6497 34.26C21.7197 34.41 21.7898 34.55 21.8498 34.69C21.8998 34.8 21.9597 34.92 22.0197 35.03C22.0697 35.13 22.1198 35.22 22.1698 35.32C22.2498 35.46 22.3197 35.6 22.3997 35.74C22.4597 35.85 22.5298 35.97 22.5898 36.08C22.6498 36.19 22.7097 36.29 22.7697 36.39C22.8497 36.52 22.9298 36.65 23.0098 36.78C23.0098 36.78 23.0098 36.79 23.0098 36.8C23.0098 36.8 23.0097 36.81 23.0197 36.82C23.1297 37 23.2398 37.17 23.3498 37.34C23.4698 37.52 23.5897 37.7 23.7097 37.88C23.8297 38.05 23.9497 38.22 24.0797 38.39C24.1597 38.49 24.2298 38.6 24.3098 38.7C24.4098 38.84 24.5198 38.98 24.6298 39.12C24.8398 39.39 25.0598 39.65 25.2798 39.9C25.3898 40.03 25.5098 40.16 25.6198 40.28C25.8498 40.53 26.0798 40.77 26.3198 41C26.4498 41.13 26.5797 41.25 26.7097 41.38C26.8397 41.5 26.9797 41.63 27.1097 41.75C27.2097 41.84 27.2997 41.92 27.3997 42.01C27.4097 42.02 27.4298 42.03 27.4398 42.05C27.5598 42.15 27.6797 42.25 27.7997 42.35C27.9197 42.45 28.0398 42.54 28.1598 42.63C28.2198 42.68 28.2798 42.72 28.3398 42.77C28.4498 42.86 28.5697 42.94 28.6797 43.02C28.8197 43.13 28.9697 43.23 29.1097 43.32C29.2197 43.4 29.3197 43.47 29.4297 43.53C29.5497 43.61 29.6698 43.69 29.7898 43.76C29.9298 43.84 30.0697 43.93 30.2097 44.01C30.2097 44.01 30.2098 43.98 30.2198 43.97C30.2198 43.97 30.2198 43.99 30.2198 44C30.2298 44 30.2498 43.98 30.2598 43.98C30.4298 43.88 30.5898 43.78 30.7598 43.68C30.7898 43.66 30.8198 43.64 30.8398 43.63C30.9898 43.54 31.1398 43.44 31.2898 43.34C31.3098 43.34 31.3198 43.32 31.3398 43.31C31.4398 43.25 31.5298 43.18 31.6198 43.11C31.6398 43.09 31.6598 43.08 31.6898 43.06C31.7898 42.99 31.8897 42.91 31.9897 42.84C32.0097 42.84 32.0198 42.82 32.0398 42.81C32.1498 42.73 32.2498 42.65 32.3498 42.57C32.5798 42.39 32.7997 42.21 33.0197 42.02C33.1397 41.92 33.2598 41.81 33.3798 41.7C33.4798 41.61 33.5798 41.52 33.6898 41.42C33.8798 41.24 34.0597 41.06 34.2397 40.88C34.4197 40.7 34.5998 40.51 34.7798 40.32C34.9598 40.13 35.1297 39.93 35.2997 39.73C35.4697 39.53 35.6397 39.33 35.7997 39.12C35.9397 38.94 36.0898 38.75 36.2298 38.57C36.2698 38.52 36.2997 38.48 36.3297 38.43C36.4697 38.25 36.5998 38.06 36.7298 37.88C36.7498 37.85 36.7698 37.82 36.7898 37.79C36.9098 37.62 37.0198 37.45 37.1398 37.27C37.1998 37.18 37.2498 37.09 37.3098 37C37.3798 36.89 37.4497 36.77 37.5197 36.66C37.5597 36.6 37.5998 36.54 37.6298 36.47C37.7798 36.21 37.9297 35.95 38.0797 35.68C38.0797 35.66 38.0997 35.65 38.1097 35.63C38.1797 35.49 38.2497 35.36 38.3297 35.22C38.3997 35.08 38.4698 34.94 38.5398 34.8C38.5598 34.76 38.5798 34.72 38.5998 34.68C38.6598 34.55 38.7198 34.43 38.7798 34.3C38.7998 34.25 38.8298 34.2 38.8498 34.15C38.9198 34 38.9798 33.86 39.0398 33.71C39.1098 33.56 39.1698 33.41 39.2298 33.27C39.2398 33.23 39.2597 33.19 39.2697 33.16C39.3197 33.04 39.3698 32.91 39.4198 32.79C39.4398 32.73 39.4597 32.68 39.4897 32.62C39.5397 32.48 39.5998 32.34 39.6398 32.2C39.6998 32.02 39.7598 31.85 39.8198 31.68C39.8798 31.51 39.9397 31.33 39.9897 31.15C40.7897 28.61 41.2198 25.85 41.2198 22.98C41.2198 22.73 41.2198 22.48 41.2198 22.23H41.2498ZM30.3798 20.55C27.9798 20.55 26.0398 18.53 26.0398 16.05C26.0398 13.57 27.9798 11.54 30.3798 11.54C32.7798 11.54 34.7198 13.56 34.7198 16.05C34.7198 18.54 32.7798 20.55 30.3798 20.55Z" stroke="white" stroke-width="2.65" stroke-linecap="round" stroke-linejoin="round"/>
<path d="M34.72 16.05C34.72 18.54 32.78 20.55 30.38 20.55C27.98 20.55 26.04 18.53 26.04 16.05C26.04 13.57 27.98 11.54 30.38 11.54C32.78 11.54 34.72 13.56 34.72 16.05Z" stroke="white" stroke-width="2.65" stroke-linecap="round" stroke-linejoin="round"/>
<path d="M58.3199 31.14H44.9799C44.2799 27.83 42.9899 24.8 41.2499 22.23C41.2499 22.01 41.2399 21.79 41.2199 21.57C41.2199 21.54 41.2199 21.5 41.2199 21.47C41.2199 21.45 41.2199 21.43 41.2199 21.41C41.2199 21.39 41.2199 21.36 41.2199 21.34C41.2099 21.15 41.1999 20.95 41.1799 20.76C41.1799 20.69 41.1699 20.62 41.1599 20.55C41.1399 20.32 41.1199 20.1 41.0899 19.87C41.0899 19.86 41.0899 19.85 41.0899 19.83C41.0699 19.63 41.0399 19.44 41.0199 19.24V19.22C40.9999 19.11 40.9899 19 40.9699 18.89C40.9199 18.53 40.8599 18.16 40.7899 17.81C40.7699 17.7 40.7499 17.59 40.7299 17.48C40.6899 17.3 40.6499 17.11 40.6099 16.92C40.5899 16.83 40.5699 16.75 40.5499 16.67C40.5499 16.65 40.5499 16.64 40.5399 16.62C40.4999 16.43 40.4499 16.24 40.3999 16.05H54.1899C54.1899 16.05 54.2499 16.06 54.2799 16.07C56.1499 19.27 57.4399 22.87 58.0099 26.73C58.2199 28.17 58.3299 29.65 58.3299 31.15L58.3199 31.14Z" stroke="white" stroke-width="2.65" stroke-linecap="round" stroke-linejoin="round"/>
<path d="M40.95 18.88C40.9 18.52 40.84 18.15 40.77 17.8C40.84 18.16 40.9 18.52 40.95 18.88Z" stroke="white" stroke-width="2.65" stroke-linecap="round" stroke-linejoin="round"/>
<path d="M35.62 45.48H30.85L30.25 44C30.25 44 30.28 43.98 30.29 43.98C30.46 43.88 30.62 43.78 30.79 43.68C30.82 43.66 30.85 43.64 30.87 43.63C31.02 43.54 31.17 43.44 31.32 43.34C31.33 43.34 31.35 43.32 31.36 43.31C31.46 43.25 31.55 43.18 31.65 43.11C31.67 43.09 31.69 43.08 31.72 43.06C31.82 42.99 31.92 42.91 32.02 42.84C32.04 42.84 32.05 42.82 32.07 42.81C32.18 42.73 32.28 42.65 32.38 42.57C32.61 42.39 32.83 42.21 33.05 42.02C33.17 41.92 33.29 41.81 33.41 41.7C33.51 41.61 33.61 41.52 33.72 41.42C33.91 41.24 34.09 41.06 34.27 40.88C34.45 40.7 34.63 40.51 34.81 40.32C34.99 40.13 35.16 39.93 35.33 39.73C35.5 39.53 35.67 39.33 35.83 39.12C35.97 38.94 36.12 38.75 36.26 38.57C36.3 38.52 36.33 38.48 36.36 38.43C36.49 38.25 36.63 38.06 36.76 37.88C36.78 37.85 36.8 37.82 36.82 37.79C36.94 37.62 37.05 37.45 37.17 37.27C37.23 37.18 37.28 37.09 37.34 37C37.41 36.89 37.48 36.77 37.55 36.66C37.59 36.6 37.63 36.54 37.66 36.47C37.81 36.21 37.96 35.95 38.11 35.68C38.11 35.66 38.13 35.65 38.14 35.63C38.21 35.49 38.28 35.36 38.36 35.22C38.43 35.08 38.5 34.94 38.57 34.8C38.59 34.76 38.61 34.72 38.63 34.68C38.69 34.55 38.75 34.43 38.81 34.3C38.83 34.25 38.86 34.2 38.88 34.15C38.95 34 39.01 33.86 39.07 33.71C39.14 33.56 39.2 33.41 39.26 33.27C39.27 33.23 39.29 33.19 39.3 33.16C39.35 33.04 39.4 32.91 39.45 32.79C39.47 32.73 39.5 32.68 39.52 32.62C39.57 32.48 39.63 32.34 39.67 32.2C39.73 32.02 39.79 31.85 39.85 31.68C39.91 31.51 39.97 31.33 40.02 31.15C40.82 28.61 41.25 25.85 41.25 22.98C41.25 22.73 41.25 22.48 41.25 22.23C42.99 24.81 44.28 27.84 44.98 31.14C45.37 32.99 45.58 34.92 45.58 36.91C45.58 39.9 45.11 42.77 44.25 45.4L44.22 45.48H35.63H35.62Z" stroke="white" stroke-width="2.65" stroke-linecap="round" stroke-linejoin="round"/>
<path d="M43.3901 56.89C40.1401 58.68 36.5101 59.83 32.6601 60.17C31.8601 60.24 31.0501 60.28 30.2401 60.28C29.4301 60.28 28.6601 60.25 27.8901 60.18C24.0201 59.85 20.3701 58.7 17.1001 56.9C18.7801 56.34 20.3601 55.57 21.8201 54.63C25.6701 52.14 28.6601 48.42 30.2401 44.03C30.2501 44.03 30.2601 44.04 30.2701 44.05C31.8601 48.46 34.8701 52.19 38.7501 54.68C40.1901 55.6 41.7401 56.36 43.3901 56.91V56.89Z" stroke="white" stroke-width="2.65" stroke-linecap="round" stroke-linejoin="round"/>
<path d="M30.8501 45.48C32.5401 49.26 35.3001 52.45 38.7401 54.66C40.1801 55.58 41.7301 56.34 43.3801 56.89C45.1801 55.9 46.8601 54.71 48.4001 53.36C50.9101 51.15 53.0401 48.48 54.6801 45.49H30.8501V45.48Z" stroke="white" stroke-width="2.65" stroke-linecap="round" stroke-linejoin="round"/>
<path d="M58.3197 31.14C58.3197 36.35 56.9997 41.25 54.6897 45.48H44.2197C44.2197 45.48 44.2397 45.42 44.2497 45.4C45.1097 42.77 45.5797 39.9 45.5797 36.91C45.5797 34.92 45.3697 32.99 44.9797 31.14H58.3197Z" stroke="white" stroke-width="2.65" stroke-linecap="round" stroke-linejoin="round"/>
<path d="M44.2397 45.4C44.2397 45.4 44.2197 45.46 44.2097 45.48H43.9897C44.0697 45.45 44.1597 45.42 44.2397 45.4Z" stroke="white" stroke-width="2.65" stroke-linecap="round" stroke-linejoin="round"/>
</svg>
