<svg width="140" height="44" viewBox="0 0 140 44" fill="none" xmlns="http://www.w3.org/2000/svg">
<path d="M1.35 0.51H6.98V6.85V7.35H6.99V17.84H6.98V18.34V23.3V23.8H6.99V24.53V25.03V36.12V36.62V42.95H1.35V35.6V0.51ZM7.99 24.0435V23.7923C10.3513 23.7204 12.4073 23.1436 14.1473 22.0425C14.3848 21.8922 14.6151 21.7366 14.8381 21.5755C15.5102 21.9948 16.0906 22.4896 16.5819 23.0572C18.4292 25.1917 19.36 27.7439 19.36 30.73C19.36 32.6937 18.9832 34.5995 18.2173 36.4706C17.4656 38.3069 16.2287 39.8433 14.4704 41.0924C12.8481 42.2449 10.7034 42.8754 7.99 42.9438V37.1083C9.1914 37.0507 10.2256 36.7794 11.06 36.262V36.4657L11.9193 35.5777C12.9495 34.5132 13.42 32.8579 13.42 30.73C13.42 28.6024 12.9497 26.8537 11.8978 25.7113C10.9441 24.6756 9.6263 24.1334 7.99 24.0435ZM17.4459 17.1103C16.7947 18.3692 15.9002 19.4555 14.7596 20.3775C12.9563 19.4273 10.6884 18.9381 7.99 18.8849V18.8243C9.5414 18.7262 10.7652 18.1672 11.5623 17.0869L11.66 16.9545V16.9298C12.4388 15.7972 12.81 14.2771 12.81 12.43C12.81 10.5092 12.3959 8.9752 11.4806 7.9178C10.6475 6.9554 9.4606 6.4569 7.99 6.3655V0.5268C10.4963 0.5944 12.5221 1.1657 14.0827 2.206C15.7771 3.3357 16.9679 4.7595 17.6668 6.4783C18.3834 8.2408 18.75 10.057 18.75 11.94C18.75 13.8037 18.3222 15.4346 17.4469 17.1083L17.4459 17.1103ZM7.99 22.7918V19.8851C10.3492 19.9334 12.2951 20.3271 13.8496 21.0439C13.7716 21.0957 13.6926 21.1469 13.6126 21.1975C12.0557 22.1827 10.1904 22.7205 7.99 22.7918Z" fill="white" stroke="white"/>
<path d="M25.4561 40.7833L25.4549 40.7821C24.0454 39.3274 23.0242 37.1019 22.4147 34.0333C21.8143 30.9576 21.5 26.8634 21.5 21.73C21.5 16.5948 21.8041 12.5016 22.4146 9.4274L22.4149 9.4258C23.0135 6.3595 24.0447 4.1333 25.4549 2.6779C26.8382 1.2502 28.8149 0.51 31.46 0.51C34.105 0.51 36.092 1.2599 37.465 2.6778C38.875 4.1325 39.896 6.3581 40.505 9.4267C41.106 12.5024 41.42 16.5966 41.42 21.73C41.42 26.8652 41.116 30.9584 40.505 34.0326V34.0342C39.906 37.1004 38.875 39.3266 37.465 40.7821C36.082 42.2098 34.105 42.95 31.46 42.95C28.8137 42.95 26.8279 42.2092 25.4561 40.7833ZM28.1167 12.668L28.1165 12.6705C27.9039 14.8052 27.7989 17.8347 27.7989 21.74C27.7989 25.6453 27.9039 28.6747 28.1165 30.8095C28.3267 32.9215 28.6574 34.496 29.1569 35.4493C29.4041 35.936 29.7176 36.3322 30.1126 36.6068C30.5136 36.8855 30.9718 37.02 31.4705 37.02C31.9692 37.02 32.427 36.8855 32.828 36.6068C33.224 36.3319 33.538 35.935 33.785 35.4475C34.273 34.4968 34.604 32.9243 34.814 30.8095C35.027 28.6747 35.132 25.6453 35.132 21.74C35.132 17.8347 35.027 14.8053 34.814 12.6705C34.604 10.5551 34.272 8.9824 33.785 8.0318C33.28 7.0484 32.501 6.46 31.4705 6.46C30.4431 6.46 29.6613 7.0357 29.1552 8.0339C28.6693 8.9923 28.3378 10.5527 28.1167 12.668Z" fill="white" stroke="white"/>
<path d="M49.236 40.7833L49.235 40.7821C47.825 39.3274 46.804 37.1019 46.195 34.0333C45.594 30.9576 45.28 26.8634 45.28 21.73C45.28 16.5948 45.584 12.5016 46.195 9.4274V9.4258C46.794 6.3595 47.825 4.1333 49.235 2.6779C50.618 1.2502 52.595 0.51 55.24 0.51C57.885 0.51 59.872 1.2599 61.245 2.6778C62.655 4.1325 63.676 6.3581 64.285 9.4267C64.886 12.5024 65.2 16.5966 65.2 21.73C65.2 26.8652 64.896 30.9584 64.285 34.0326V34.0342C63.686 37.1004 62.655 39.3266 61.245 40.7821C59.862 42.2098 57.885 42.95 55.24 42.95C52.594 42.95 50.608 42.2092 49.236 40.7833ZM51.897 12.668L51.896 12.6705C51.684 14.8053 51.579 17.8347 51.579 21.74C51.579 25.6453 51.684 28.6747 51.896 30.8095C52.107 32.9215 52.437 34.496 52.937 35.4493C53.184 35.936 53.498 36.3322 53.893 36.6068C54.294 36.8855 54.752 37.02 55.251 37.02C55.749 37.02 56.207 36.8855 56.608 36.6068C57.004 36.3319 57.318 35.9349 57.565 35.4475C58.052 34.4968 58.384 32.9243 58.594 30.8095C58.807 28.6747 58.912 25.6453 58.912 21.74C58.912 17.8347 58.807 14.8053 58.594 12.6705C58.384 10.5551 58.052 8.9824 57.565 8.0318C57.06 7.0484 56.281 6.46 55.251 6.46C54.223 6.46 53.441 7.0357 52.935 8.0339C52.449 8.9923 52.118 10.5527 51.897 12.668Z" fill="white" stroke="white"/>
<path d="M82.27 3.4325V3.4399L82.343 3.5595C83.555 5.5559 84.213 8.8062 84.258 13.39H78.618C78.608 11.8831 78.548 10.6587 78.436 9.7304C78.315 8.717 78.116 7.8996 77.8 7.3656C77.448 6.7684 76.891 6.46 76.19 6.46C75.786 6.46 75.406 6.5402 75.082 6.7325C74.753 6.9282 74.514 7.22 74.367 7.5814C74.112 8.2063 74 9.0193 74 9.97C74 11.3921 74.375 12.7739 75.121 14.1298C75.839 15.4519 76.956 17.1045 78.451 19.0816L78.453 19.0834C79.735 20.7637 80.787 22.2621 81.628 23.5688C82.447 24.8656 83.151 26.3115 83.719 27.8978C84.279 29.472 84.57 31.1551 84.57 32.95C84.57 34.9468 84.249 36.6877 83.61 38.1837C82.974 39.6735 82.043 40.8345 80.8 41.6759C79.563 42.5128 78.074 42.95 76.31 42.95C73.117 42.95 70.967 41.7608 69.72 39.4432C68.474 37.1262 67.81 33.8169 67.763 29.47H73.402C73.416 30.9906 73.496 32.2688 73.645 33.2917C73.809 34.4269 74.072 35.3285 74.467 35.9564C74.884 36.6195 75.483 37 76.25 37C76.664 37 77.048 36.8883 77.38 36.6493C77.707 36.4135 77.952 36.0759 78.128 35.6705C78.465 34.9066 78.62 33.9622 78.62 32.88C78.62 31.1885 78.22 29.6048 77.408 28.1482C76.629 26.7253 75.422 24.9623 73.806 22.8649L73.804 22.862C72.521 21.2213 71.51 19.8137 70.75 18.6488C70.012 17.4935 69.369 16.1789 68.842 14.6836C68.322 13.2105 68.06 11.6371 68.06 9.96C68.06 7.0651 68.787 4.7873 70.206 3.0682C71.606 1.3711 73.575 0.5 76.19 0.5C79.057 0.5 81.043 1.4988 82.27 3.4325Z" fill="white" stroke="white"/>
<path d="M90.96 35.72H90.97V35.22V6.65V6.15H90.47H86.14V0.51H101.43V6.15H97.1H96.6V6.65V42.95H90.96V35.72Z" fill="white" stroke="white"/>
<path d="M110.78 23.95V18.31H116.42V23.95H110.78ZM110.27 36.72H118.22V42.96H104.14V35.23V35.22V0.52H118.22V6.76H110.27H109.77V7.26V36.22V36.72H110.27Z" fill="white" stroke="white"/>
<path d="M135.435 24.3208C134.94 24.9158 134.403 25.4366 133.822 25.8829L132.965 23.2645L132.847 22.9042L132.469 22.9205C131.546 22.9601 130.593 22.98 129.62 22.98H126.81H126.27L126.311 23.5181L126.551 26.6581L126.556 26.7139L126.572 26.7674L126.96 28.0241V28.38V42.96H121.32V35.23V35.22V0.52H127.46C130.879 0.52 133.525 1.6341 135.476 3.8222C137.407 5.9984 138.43 9.8307 138.43 14.2C138.43 18.5468 137.407 21.9391 135.435 24.3208ZM127.959 27.871L127.544 26.5261L127.35 23.98H129.62C130.474 23.98 131.314 23.9649 132.132 23.9347L132.962 26.4701C131.529 27.3336 129.865 27.802 127.959 27.871ZM133.28 27.4429L138.357 42.95H132.424L128.256 28.8585C130.133 28.7557 131.811 28.2839 133.28 27.4429ZM131.251 20.355L131.253 20.3525C132.101 19.1126 132.49 17.1235 132.49 14.49C132.49 11.8603 132.113 9.8684 131.252 8.6263C130.386 7.3631 129.092 6.75 127.46 6.75H126.96V7.25V21.73V22.23H127.46C129.094 22.23 130.377 21.6151 131.251 20.355Z" fill="white" stroke="white"/>
</svg>
